<svg width="34" height="35" viewBox="0 0 34 35" fill="none" xmlns="http://www.w3.org/2000/svg"><path d="M6.752 8.444v-.24l.891-.986a6 6 0 0 0 .259-.302q.101-.13.15-.243a.6.6 0 0 0 .049-.239.45.45 0 0 0-.068-.249.44.44 0 0 0-.185-.162.6.6 0 0 0-.264-.058.56.56 0 0 0-.272.065.43.43 0 0 0-.177.18.55.55 0 0 0-.062.272h-.31q0-.24.109-.421a.76.76 0 0 1 .299-.284.9.9 0 0 1 .425-.1q.237 0 .42.1a.77.77 0 0 1 .287.273q.105.173.105.383 0 .15-.054.293a1.4 1.4 0 0 1-.184.32 6 6 0 0 1-.363.426l-.606.655v.02h1.256v.294H6.754zm3.128.039a.8.8 0 0 1-.508-.163q-.21-.165-.321-.478a2.3 2.3 0 0 1-.112-.76q0-.444.112-.755a1.03 1.03 0 0 1 .322-.48.8.8 0 0 1 .507-.165q.294 0 .506.165.21.167.323.48.111.314.111.755 0 .444-.111.76-.112.314-.321.478a.8.8 0 0 1-.508.163m0-.293q.295 0 .459-.289.164-.286.164-.82 0-.356-.075-.604a.84.84 0 0 0-.214-.38.47.47 0 0 0-.334-.132q-.293 0-.458.292t-.165.822q0 .355.074.602.074.25.213.377a.48.48 0 0 0 .336.13zm8.943 7.614h-2.017a2.6 2.6 0 0 0-.32-.892 2.4 2.4 0 0 0-1.362-1.073 3.2 3.2 0 0 0-.947-.14 2.85 2.85 0 0 0-1.597.455q-.696.456-1.09 1.331-.393.876-.393 2.135c0 .84.131 1.573.396 2.156q.397.876 1.09 1.32t1.59.443q.495 0 .93-.133.433-.133.781-.396.348-.261.587-.643.24-.382.333-.872l2.017.01A4.5 4.5 0 0 1 18.333 21a4.4 4.4 0 0 1-2.392 2.06 5.2 5.2 0 0 1-1.796.296q-1.456 0-2.6-.682-1.145-.681-1.8-1.97-.66-1.287-.66-3.086c0-1.2.222-2.233.664-3.09q.664-1.285 1.808-1.966 1.144-.68 2.59-.682.922 0 1.715.26.793.262 1.413.767.621.504 1.023 1.232.402.729.527 1.66zm4.138 7.569q-.788 0-1.416-.287a2.3 2.3 0 0 1-.993-.848q-.364-.56-.364-1.385 0-.709.258-1.172a2 2 0 0 1 .707-.742 3.6 3.6 0 0 1 1.011-.424 8 8 0 0 1 1.168-.21q.73-.076 1.182-.138.452-.061.662-.196.207-.134.208-.416v-.033q0-.615-.362-.953-.36-.338-1.041-.338-.718 0-1.136.315-.418.318-.564.748l-1.823-.261q.215-.764.712-1.278.496-.516 1.214-.775a4.7 4.7 0 0 1 1.587-.26q.6 0 1.191.142.594.142 1.084.466.492.325.79.88.3.556.299 1.391v5.607h-1.877v-1.15h-.064q-.178.348-.5.652a2.4 2.4 0 0 1-.804.484 3.2 3.2 0 0 1-1.13.183zm.507-1.45q.587 0 1.02-.237.43-.238.666-.63.235-.393.235-.857v-.987a.9.9 0 0 1-.311.141 4 4 0 0 1-.488.114q-.27.05-.533.088-.264.038-.46.064-.438.06-.781.197-.345.135-.545.378-.2.244-.2.625 0 .545.394.824.393.279 1.003.278zm-9.689 6.947h-.328a.71.71 0 0 0-.501-.544.87.87 0 0 0-.702.088.87.87 0 0 0-.316.368 1.4 1.4 0 0 0-.117.6q0 .353.117.598a.81.81 0 0 0 .76.493q.133 0 .258-.037a.71.71 0 0 0 .501-.543h.328q-.038.21-.135.375a1 1 0 0 1-.243.28 1 1 0 0 1-.326.176q-.18.06-.385.06-.346 0-.615-.171a1.17 1.17 0 0 1-.423-.485 1.7 1.7 0 0 1-.154-.747q-.001-.432.154-.747t.423-.485.615-.17q.205 0 .385.06.18.058.326.175a1.04 1.04 0 0 1 .378.655zm1.081 1.927a.8.8 0 0 1-.35-.074.6.6 0 0 1-.25-.215.6.6 0 0 1-.092-.34q0-.178.07-.288a.5.5 0 0 1 .183-.172 1 1 0 0 1 .253-.094q.14-.03.28-.05.185-.024.301-.035a.5.5 0 0 0 .169-.043q.053-.03.054-.105v-.01a.42.42 0 0 0-.106-.308q-.107-.11-.321-.11a.56.56 0 0 0-.35.1.6.6 0 0 0-.177.21l-.295-.106a.72.72 0 0 1 .501-.439q.159-.041.31-.042.099 0 .225.024a.7.7 0 0 1 .247.095q.119.072.199.217t.08.389v1.35h-.311v-.277h-.016a.6.6 0 0 1-.3.273.8.8 0 0 1-.299.053zm.047-.284a.6.6 0 0 0 .313-.073.5.5 0 0 0 .192-.19.5.5 0 0 0 .066-.243v-.289a.2.2 0 0 1-.086.043 1 1 0 0 1-.154.034l-.167.024-.132.017q-.121.015-.226.051a.4.4 0 0 0-.169.106.27.27 0 0 0-.064.19q0 .163.12.247a.52.52 0 0 0 .307.083m1.761-2.494v2.73h-.31v-2.73zm1.392 2.771a.9.9 0 0 1-.49-.136.9.9 0 0 1-.318-.376 1.3 1.3 0 0 1-.111-.546c0-.205.039-.392.114-.55a.9.9 0 0 1 .32-.376.85.85 0 0 1 .479-.135.9.9 0 0 1 .385.08.7.7 0 0 1 .415.56h-.31a.48.48 0 0 0-.484-.358.55.55 0 0 0-.32.095.6.6 0 0 0-.213.268 1 1 0 0 0-.076.404q0 .234.075.413.074.176.21.273a.54.54 0 0 0 .321.097.5.5 0 0 0 .22-.042.47.47 0 0 0 .265-.314h.31a.73.73 0 0 1-.403.554.9.9 0 0 1-.393.086zm1.41-2.43a.22.22 0 0 1-.156-.063.2.2 0 0 1-.066-.15.2.2 0 0 1 .066-.15.22.22 0 0 1 .157-.063q.09 0 .157.063a.2.2 0 0 1 .066.15q0 .088-.066.15a.22.22 0 0 1-.157.063m-.158 2.389V28.7h.31v2.048zm2.157-.839v-1.209h.31v2.048h-.31v-.347h-.02a.635.635 0 0 1-.601.374.65.65 0 0 1-.338-.085.6.6 0 0 1-.233-.256 1 1 0 0 1-.085-.434v-1.3h.311v1.28a.5.5 0 0 0 .125.356q.124.135.319.134a.53.53 0 0 0 .439-.244.55.55 0 0 0 .083-.316m.881.838V28.7h.3v.32h.028a.52.52 0 0 1 .204-.255.6.6 0 0 1 .34-.092.6.6 0 0 1 .334.092q.134.092.209.256h.02a.6.6 0 0 1 .233-.253.7.7 0 0 1 .373-.093q.271.001.444.17.172.172.172.532v1.37h-.31v-1.37q0-.226-.123-.324a.45.45 0 0 0-.29-.097q-.211 0-.33.13a.48.48 0 0 0-.118.33v1.332h-.317v-1.403a.37.37 0 0 0-.112-.281.4.4 0 0 0-.289-.108.43.43 0 0 0-.226.065.5.5 0 0 0-.169.18.54.54 0 0 0-.064.267v1.28z" fill="#427277"/><rect x=".5" y=".5" width="33" height="33.35" rx="4.5" stroke="#427277"/></svg>