<svg width="51" height="59" viewBox="0 0 51 59" fill="none" xmlns="http://www.w3.org/2000/svg"><g clip-path="url(#a)" fill="#427277"><path d="M49.7 7.669h-1.48c-7.89 0-15.676-2.628-21.927-7.402a1.31 1.31 0 0 0-1.588 0C18.454 5.039 10.667 7.669 2.78 7.669H1.3c-.717 0-1.3.578-1.3 1.29v18.793c0 12.922 8.176 24.71 20.347 29.336 1.655.628 3.387.946 5.155.946s3.5-.318 5.153-.946c12.171-4.624 20.347-16.414 20.347-29.336V8.959c0-.712-.583-1.29-1.3-1.29zM2.601 16.373h.178c8.104 0 16.165-2.609 22.72-7.347 6.555 4.738 14.616 7.347 22.72 7.347h.178v11.379c0 11.861-7.504 22.681-18.675 26.926a11.88 11.88 0 0 1-8.446 0C10.108 50.433 2.602 39.613 2.602 27.752zm45.796-2.58h-.178c-7.89 0-15.676-2.63-21.927-7.402a1.31 1.31 0 0 0-1.588 0c-6.251 4.775-14.038 7.402-21.925 7.402h-.178V10.25h.178c8.104 0 16.165-2.609 22.72-7.348 6.555 4.74 14.616 7.348 22.72 7.348h.178z"/><path d="M21.27 47.926c3.684 0 6.68-2.971 6.68-6.623V29.594c0-3.652-2.996-6.623-6.68-6.623s-6.68 2.971-6.68 6.623v11.709c0 3.652 2.997 6.623 6.68 6.623m4.076-16.335H17.19v-1.997c0-2.23 1.829-4.044 4.079-4.044s4.078 1.816 4.078 4.044zm-8.154 7.713h8.157v1.999c0 2.228-1.829 4.044-4.079 4.044s-4.078-1.813-4.078-4.044zm0-2.578v-2.553h8.157v2.553z"/><path d="M24.797 22.498a1.31 1.31 0 0 0 1.766-.513 4.08 4.08 0 0 1 3.582-2.11c2.247 0 4.078 1.813 4.078 4.044v2h-4.235c-.718 0-1.3.578-1.3 1.29 0 .711.582 1.29 1.3 1.29h4.235v2.553h-3.56c-.716 0-1.301.578-1.301 1.29 0 .711.583 1.29 1.3 1.29h3.561v1.996c0 2.006-1.505 3.726-3.505 4.006a1.29 1.29 0 0 0-1.108 1.457 1.3 1.3 0 0 0 1.467 1.098c3.276-.456 5.746-3.274 5.746-6.559V23.92c0-3.653-2.997-6.624-6.68-6.624a6.69 6.69 0 0 0-5.867 3.451c-.344.624-.11 1.41.518 1.751zm-12.055 4.88c0-.712-.583-1.29-1.3-1.29H4.714c-.718 0-1.3.578-1.3 1.29s.582 1.29 1.3 1.29h6.726c.718 0 1.301-.578 1.301-1.29M7.42 22.473l3.362 1.954a1.303 1.303 0 0 0 1.781-.461 1.28 1.28 0 0 0-.463-1.765l-3.363-1.954a1.3 1.3 0 0 0-.988-.136 1.28 1.28 0 0 0-.792.597 1.27 1.27 0 0 0-.138.977c.087.335.302.614.6.786zm5.28 9.29a1.296 1.296 0 0 0-.93-1.574 1.3 1.3 0 0 0-.988.136L7.42 32.282a1.28 1.28 0 0 0-.462 1.765 1.305 1.305 0 0 0 1.78.46l3.363-1.956c.301-.174.513-.453.6-.785zm26.859-3.095h6.726c.718 0 1.3-.578 1.3-1.29s-.582-1.29-1.3-1.29h-6.726c-.718 0-1.301.578-1.301 1.29s.583 1.29 1.3 1.29m.002-4.061c.231 0 .46-.063.657-.177l3.364-1.956a1.284 1.284 0 0 0 .464-1.766 1.31 1.31 0 0 0-1.78-.46l-3.363 1.956a1.3 1.3 0 0 0-.602.788 1.28 1.28 0 0 0 .137.98 1.31 1.31 0 0 0 1.123.637zm4.02 7.675-3.362-1.957a1.3 1.3 0 0 0-.986-.136 1.3 1.3 0 0 0-.795.597 1.27 1.27 0 0 0-.137.977c.089.332.301.612.602.786l3.36 1.956a1.305 1.305 0 0 0 1.78-.461c.177-.296.225-.645.138-.979a1.28 1.28 0 0 0-.602-.788z"/></g><defs><clipPath id="a"><path fill="#fff" d="M0 0h51v58.035H0z"/></clipPath></defs></svg>