<svg width="45" height="44" viewBox="0 0 45 44" fill="none" xmlns="http://www.w3.org/2000/svg"><path d="M44.095 21.999c0 11.873-9.626 21.498-21.499 21.498S1.098 33.872 1.098 22 10.723.5 22.596.5s21.499 9.625 21.499 21.499Z" stroke="#fff"/><path fill-rule="evenodd" clip-rule="evenodd" d="M20.283 22.057v7.445a.194.194 0 0 0 .194.194h2.765a.194.194 0 0 0 .194-.194v-7.566h2.005a.193.193 0 0 0 .192-.177l.193-2.28a.193.193 0 0 0-.193-.21h-2.197V17.65a.686.686 0 0 1 .686-.687h1.544a.193.193 0 0 0 .195-.194v-2.28a.2.2 0 0 0-.057-.137.2.2 0 0 0-.138-.056h-2.61a2.774 2.774 0 0 0-2.773 2.774v2.198H18.9a.193.193 0 0 0-.194.193v2.28a.194.194 0 0 0 .194.194h1.382z" fill="#fff"/></svg>