<svg width="45" height="44" viewBox="0 0 45 44" fill="none" xmlns="http://www.w3.org/2000/svg">
<path d="M43.5908 21.9985C43.5908 33.8718 33.9656 43.4971 22.0923 43.4971C10.219 43.4971 0.59375 33.8718 0.59375 21.9985C0.59375 10.1252 10.219 0.5 22.0923 0.5C33.9656 0.5 43.5908 10.1252 43.5908 21.9985Z" stroke="white"/>
<path d="M28.6533 19.0188C28.6433 18.5205 28.549 18.0273 28.3746 17.5603C28.2204 17.1611 27.9844 16.7984 27.6818 16.4958C27.3792 16.1932 27.0167 15.9575 26.6175 15.8033C26.1511 15.6285 25.6583 15.534 25.1603 15.5244C24.5202 15.4956 24.3157 15.4883 22.6854 15.4883C21.055 15.4883 20.8491 15.4956 20.209 15.5244C19.711 15.534 19.2183 15.6285 18.7518 15.8033C18.3527 15.9577 17.9904 16.1938 17.6878 16.4964C17.3852 16.799 17.1491 17.1612 16.9947 17.5603C16.8203 18.0273 16.7262 18.5205 16.7162 19.0188C16.686 19.6589 16.6797 19.8631 16.6797 21.4935C16.6797 23.1239 16.686 23.3286 16.7162 23.97C16.726 24.4679 16.8201 24.9608 16.9947 25.4273C17.1493 25.8262 17.3856 26.1886 17.6881 26.4912C17.9907 26.7937 18.3529 27.0297 18.7518 27.1843C19.2183 27.3591 19.711 27.4536 20.209 27.4631C20.8504 27.4933 21.0537 27.4993 22.6854 27.4993C24.317 27.4993 24.5202 27.4995 25.1603 27.4631C25.6583 27.4536 26.1511 27.3591 26.6175 27.1843C27.0166 27.0299 27.3791 26.7938 27.6817 26.4912C27.9843 26.1886 28.2203 25.8264 28.3746 25.4273C28.5492 24.9608 28.6434 24.4679 28.6533 23.97C28.6822 23.3286 28.6896 23.1239 28.6896 21.4935C28.6896 19.8631 28.6822 19.6589 28.6533 19.0188ZM27.5726 23.9209C27.5683 24.3016 27.4984 24.6789 27.3656 25.0357C27.2657 25.2947 27.1127 25.5301 26.9164 25.7264C26.7201 25.9226 26.4849 26.0751 26.2259 26.175C25.8689 26.307 25.492 26.3767 25.1114 26.3809C24.4776 26.4097 24.2881 26.4164 22.6854 26.4164C21.0826 26.4164 20.8918 26.4097 20.2593 26.3809C19.8783 26.3766 19.5008 26.3069 19.1435 26.175C18.8845 26.075 18.6494 25.922 18.4531 25.7257C18.2568 25.5295 18.1038 25.2946 18.0039 25.0357C17.8722 24.6786 17.8025 24.3015 17.798 23.9209C17.7691 23.2934 17.7629 23.0975 17.7629 21.4935C17.7629 19.8895 17.7691 19.7004 17.798 19.0679C17.8024 18.6873 17.8721 18.3101 18.0039 17.9531C18.104 17.6943 18.257 17.4593 18.4532 17.2631C18.6495 17.0668 18.8846 16.9134 19.1435 16.8132C19.5006 16.6803 19.8782 16.6102 20.2593 16.6061C20.8868 16.5772 21.0813 16.5712 22.6854 16.5712C24.2894 16.5712 24.4776 16.571 25.1114 16.6061C25.4921 16.6102 25.8691 16.6803 26.2259 16.8132C26.4847 16.9134 26.7197 17.0668 26.9159 17.2631C27.1122 17.4593 27.2654 17.6943 27.3656 17.9531C27.4985 18.3099 27.5685 18.6872 27.5726 19.0679C27.6015 19.6954 27.6078 19.8907 27.6078 21.4935C27.6078 23.0962 27.6015 23.2871 27.5726 23.9209Z" fill="white"/>
<path d="M22.6841 18.4141C22.0744 18.4141 21.4784 18.5944 20.9715 18.9331C20.4646 19.2718 20.0695 19.7537 19.8362 20.3169C19.6029 20.8802 19.5419 21.4999 19.6608 22.0978C19.7797 22.6958 20.0733 23.2448 20.5044 23.6759C20.9355 24.107 21.4848 24.4008 22.0827 24.5198C22.6807 24.6387 23.3004 24.5772 23.8636 24.3439C24.4269 24.1106 24.9084 23.7158 25.2471 23.2089C25.5858 22.702 25.7665 22.1057 25.7665 21.496C25.7665 20.6785 25.4419 19.8949 24.8638 19.3168C24.2857 18.7387 23.5016 18.4141 22.6841 18.4141ZM22.6841 23.4982C22.2884 23.4984 21.9015 23.3813 21.5722 23.1617C21.243 22.9422 20.9861 22.6299 20.8342 22.2645C20.6823 21.8991 20.6423 21.4969 20.7189 21.1087C20.7954 20.7205 20.9853 20.3638 21.2646 20.0834C21.5439 19.8031 21.9001 19.6118 22.288 19.5337C22.676 19.4557 23.0783 19.4941 23.4443 19.6446C23.8103 19.7952 24.1233 20.051 24.3441 20.3794C24.5649 20.7078 24.6834 21.0942 24.6847 21.4899C24.6852 21.753 24.6338 22.0139 24.5335 22.2572C24.4332 22.5004 24.2858 22.7211 24.1 22.9074C23.9142 23.0937 23.6936 23.2416 23.4506 23.3425C23.2076 23.4434 22.9472 23.4956 22.6841 23.4957V23.4982Z" fill="white"/>
<path d="M25.8871 19.0071C25.7447 19.0068 25.6057 18.9644 25.4874 18.8851C25.3691 18.8059 25.2769 18.6937 25.2225 18.5621C25.1681 18.4306 25.1541 18.2857 25.1819 18.146C25.2097 18.0064 25.2782 17.8784 25.3789 17.7777C25.4796 17.677 25.6079 17.6082 25.7475 17.5804C25.8872 17.5525 26.0319 17.5665 26.1635 17.6208C26.2951 17.6752 26.4077 17.7673 26.4869 17.8856C26.5662 18.0038 26.6085 18.1434 26.6087 18.2858C26.6087 18.4772 26.5328 18.6603 26.3975 18.7956C26.2621 18.931 26.0785 19.0071 25.8871 19.0071Z" fill="white"/>
</svg>
