<svg width="45" height="44" viewBox="0 0 45 44" fill="none" xmlns="http://www.w3.org/2000/svg"><path d="M44.185 21.999c0 11.873-9.626 21.498-21.499 21.498S1.188 33.872 1.188 22 10.813.5 22.686.5s21.499 9.625 21.499 21.499Z" stroke="#fff"/><path d="M19.59 20.106h-2.402v8.407h2.402zm-1.195-1.204h-.013a1.2 1.2 0 1 1 .013 0m10.795 9.612h-2.747v-4.398c0-1.105-.4-1.86-1.396-1.86-.31.003-.612.1-.865.279s-.444.43-.548.721c-.07.215-.101.44-.09.666v4.592h-2.755s.037-7.449 0-8.214h2.754v1.164c.25-.43.613-.783 1.05-1.022a2.75 2.75 0 0 1 1.433-.334c1.812 0 3.171 1.174 3.171 3.698z" fill="#fff"/></svg>