<svg width="228" height="228" viewBox="0 0 228 228" fill="none" xmlns="http://www.w3.org/2000/svg"><path d="m85.498 114 19 19 38-38M74.431 44.622a32.5 32.5 0 0 0 18.487-7.657 32.49 32.49 0 0 1 42.161 0 32.5 32.5 0 0 0 18.487 7.657 32.49 32.49 0 0 1 29.811 29.81 32.5 32.5 0 0 0 7.657 18.487 32.49 32.49 0 0 1 0 42.162 32.48 32.48 0 0 0-7.657 18.487 32.495 32.495 0 0 1-29.811 29.811 32.48 32.48 0 0 0-18.487 7.657 32.494 32.494 0 0 1-42.161 0 32.5 32.5 0 0 0-18.487-7.657 32.494 32.494 0 0 1-29.811-29.811 32.5 32.5 0 0 0-7.657-18.487 32.49 32.49 0 0 1 0-42.161 32.5 32.5 0 0 0 7.657-18.487 32.49 32.49 0 0 1 29.81-29.811" stroke="#fff" stroke-width="10" stroke-linecap="round" stroke-linejoin="round"/></svg>