<svg width="44" height="44" viewBox="0 0 44 44" fill="none" xmlns="http://www.w3.org/2000/svg"><path d="M43.497 21.999c0 11.873-9.625 21.498-21.498 21.498S.5 33.872.5 22 10.125.5 21.999.5s21.498 9.625 21.498 21.499Z" stroke="#fff"/><g clip-path="url(#a)"><path d="M31.68 19.508c0-2.316-1.903-4.193-4.252-4.193h-10.86c-2.348 0-4.252 1.877-4.252 4.193v4.985c0 2.317 1.904 4.194 4.252 4.194h10.866c2.349 0 4.252-1.878 4.252-4.194v-4.985zm-6.391 2.863-4.87 2.38c-.19.1-.84-.038-.84-.252v-4.878c0-.22.656-.351.847-.245l4.666 2.505c.197.107.4.39.203.496z" stroke="#fff" stroke-miterlimit="10"/></g><defs><clipPath id="a"><path fill="#fff" d="M12 15h20v14H12z"/></clipPath></defs></svg>